<svg width="32" height="32" viewBox="0 0 32 32" fill="none" xmlns="http://www.w3.org/2000/svg">
<circle cx="16" cy="16" r="15" transform="rotate(90 16 16)" stroke="url(#paint0_linear_4607_10951)" stroke-width="2"/>
<path d="M15.1107 21V14.92C15.1107 14.6427 15.1107 14.36 15.1107 14.072C15.1214 13.7733 15.1267 13.4693 15.1267 13.16C14.7747 13.48 14.3854 13.7627 13.9587 14.008C13.532 14.2427 13.084 14.4027 12.6147 14.488L12.3587 12.216C12.636 12.1947 12.9294 12.1253 13.2387 12.008C13.5587 11.8907 13.8734 11.7467 14.1827 11.576C14.492 11.4053 14.7694 11.224 15.0147 11.032C15.26 10.8293 15.4467 10.632 15.5747 10.44H17.7667V21H15.1107Z" fill="url(#paint1_linear_4607_10951)"/>
<defs>
<linearGradient id="paint0_linear_4607_10951" x1="16" y1="0" x2="16" y2="32" gradientUnits="userSpaceOnUse">
<stop stop-color="#008000"/>
<stop offset="1" stop-color="#00B800"/>
</linearGradient>
<linearGradient id="paint1_linear_4607_10951" x1="15.5" y1="6" x2="15.5" y2="25" gradientUnits="userSpaceOnUse">
<stop stop-color="#008000"/>
<stop offset="1" stop-color="#00B800"/>
</linearGradient>
</defs>
</svg>
