<svg width="32" height="32" viewBox="0 0 32 32" fill="none" xmlns="http://www.w3.org/2000/svg">
<circle cx="16" cy="16" r="15" transform="rotate(90 16 16)" stroke="url(#paint0_linear_4607_10957)" stroke-width="2"/>
<path d="M15.5738 21.66C14.4431 21.66 13.4991 21.4413 12.7418 21.004C11.9951 20.556 11.4778 19.9053 11.1898 19.052L13.7178 17.964C13.7711 18.348 13.8671 18.6573 14.0058 18.892C14.1551 19.116 14.3525 19.2813 14.5978 19.388C14.8431 19.484 15.1311 19.532 15.4618 19.532C15.7605 19.532 16.0111 19.484 16.2138 19.388C16.4271 19.2813 16.5925 19.132 16.7098 18.94C16.8271 18.748 16.8858 18.5187 16.8858 18.252C16.8858 17.9747 16.8271 17.7507 16.7098 17.58C16.6031 17.4093 16.4431 17.2867 16.2298 17.212C16.0271 17.1373 15.7765 17.1 15.4778 17.1C15.3391 17.1 15.2111 17.1053 15.0938 17.116C14.9765 17.116 14.8431 17.1267 14.6938 17.148V15.356C14.7791 15.3667 14.8645 15.3773 14.9498 15.388C15.0351 15.388 15.1365 15.388 15.2538 15.388C15.7551 15.388 16.1125 15.2867 16.3258 15.084C16.5498 14.8707 16.6618 14.54 16.6618 14.092C16.6618 13.708 16.5498 13.4147 16.3258 13.212C16.1125 13.0093 15.8085 12.908 15.4138 12.908C14.9978 12.908 14.6565 13.02 14.3898 13.244C14.1231 13.4573 13.9525 13.8253 13.8778 14.348L11.4618 13.516C11.5791 12.9293 11.8298 12.4333 12.2138 12.028C12.5978 11.6227 13.0778 11.3133 13.6538 11.1C14.2405 10.8867 14.8858 10.78 15.5898 10.78C16.4005 10.78 17.0831 10.8973 17.6378 11.132C18.1925 11.3667 18.6138 11.7027 18.9018 12.14C19.1898 12.5773 19.3338 13.0893 19.3338 13.676C19.3338 14.1347 19.2591 14.5187 19.1098 14.828C18.9711 15.1373 18.7898 15.388 18.5658 15.58C18.3525 15.772 18.1338 15.916 17.9098 16.012C17.6858 16.0973 17.4991 16.1507 17.3498 16.172V16.22C17.5418 16.22 17.7605 16.2573 18.0058 16.332C18.2511 16.4067 18.4911 16.5293 18.7258 16.7C18.9605 16.86 19.1525 17.084 19.3018 17.372C19.4618 17.66 19.5418 18.0173 19.5418 18.444C19.5418 19.1053 19.3658 19.676 19.0138 20.156C18.6725 20.636 18.2031 21.0093 17.6058 21.276C17.0085 21.532 16.3311 21.66 15.5738 21.66Z" fill="url(#paint1_linear_4607_10957)"/>
<defs>
<linearGradient id="paint0_linear_4607_10957" x1="16" y1="0" x2="16" y2="32" gradientUnits="userSpaceOnUse">
<stop stop-color="#008000"/>
<stop offset="1" stop-color="#00B800"/>
</linearGradient>
<linearGradient id="paint1_linear_4607_10957" x1="15.5" y1="6.5" x2="15.5" y2="25.5" gradientUnits="userSpaceOnUse">
<stop stop-color="#008000"/>
<stop offset="1" stop-color="#00B800"/>
</linearGradient>
</defs>
</svg>
