<svg width="390" height="7" viewBox="0 0 390 7" fill="none" xmlns="http://www.w3.org/2000/svg">
<path d="M0.833333 3.5C0.833333 4.97276 2.02724 6.16667 3.5 6.16667C4.97276 6.16667 6.16667 4.97276 6.16667 3.5C6.16667 2.02724 4.97276 0.833333 3.5 0.833333C2.02724 0.833333 0.833333 2.02724 0.833333 3.5ZM361.333 3.5C361.333 4.97276 362.527 6.16667 364 6.16667C365.473 6.16667 366.667 4.97276 366.667 3.5C366.667 2.02724 365.473 0.833333 364 0.833333C362.527 0.833333 361.333 2.02724 361.333 3.5ZM3.5 4H364V3H3.5V4Z" fill="url(#paint0_linear_4605_7990)"/>
<defs>
<linearGradient id="paint0_linear_4605_7990" x1="183.75" y1="3.5" x2="183.75" y2="4.5" gradientUnits="userSpaceOnUse">
<stop stop-color="#008000"/>
<stop offset="1" stop-color="#00B800"/>
</linearGradient>
</defs>
</svg>
