<svg width="6" height="403" viewBox="0 0 6 403" fill="none" xmlns="http://www.w3.org/2000/svg">
<path d="M3 0.333333C1.52724 0.333333 0.333333 1.52724 0.333333 3C0.333333 4.47276 1.52724 5.66667 3 5.66667C4.47276 5.66667 5.66667 4.47276 5.66667 3C5.66667 1.52724 4.47276 0.333333 3 0.333333ZM3.00002 397.333C1.52726 397.333 0.333351 398.527 0.333351 400C0.333351 401.473 1.52726 402.667 3.00002 402.667C4.47278 402.667 5.66668 401.473 5.66668 400C5.66668 398.527 4.47278 397.333 3.00002 397.333ZM2.5 3L2.50002 400L3.50002 400L3.5 3L2.5 3Z" fill="url(#paint0_linear_4607_10950)"/>
<defs>
<linearGradient id="paint0_linear_4607_10950" x1="3.00001" y1="201.5" x2="2.00001" y2="201.5" gradientUnits="userSpaceOnUse">
<stop stop-color="#008000"/>
<stop offset="1" stop-color="#00B800"/>
</linearGradient>
</defs>
</svg>
