<svg width="32" height="32" viewBox="0 0 32 32" fill="none" xmlns="http://www.w3.org/2000/svg">
<circle cx="16" cy="16" r="15" transform="rotate(90 16 16)" stroke="url(#paint0_linear_4607_10954)" stroke-width="2"/>
<path d="M11.6944 21.5V19.74C12.601 19.1747 13.3744 18.6467 14.0144 18.156C14.6544 17.6653 15.1717 17.2013 15.5664 16.764C15.9717 16.3267 16.2704 15.9107 16.4624 15.516C16.6544 15.1213 16.7504 14.7373 16.7504 14.364C16.7504 13.9587 16.6277 13.6227 16.3824 13.356C16.1477 13.0787 15.7957 12.94 15.3264 12.94C14.825 12.94 14.4357 13.1267 14.1584 13.5C13.881 13.8627 13.7317 14.396 13.7104 15.1L11.3584 14.38C11.3797 13.5907 11.5664 12.9293 11.9184 12.396C12.281 11.8627 12.7717 11.4627 13.3904 11.196C14.009 10.9187 14.713 10.78 15.5024 10.78C16.1957 10.78 16.793 10.8813 17.2944 11.084C17.8064 11.276 18.2224 11.5373 18.5424 11.868C18.8624 12.188 19.097 12.5507 19.2464 12.956C19.4064 13.3507 19.4864 13.756 19.4864 14.172C19.4864 14.8547 19.3104 15.4947 18.9584 16.092C18.6064 16.6787 18.0944 17.2493 17.4224 17.804C16.761 18.348 15.9557 18.8973 15.0064 19.452V19.468C15.1877 19.4573 15.401 19.4467 15.6464 19.436C15.8917 19.4253 16.1477 19.42 16.4144 19.42C16.681 19.4093 16.921 19.404 17.1344 19.404H19.6144V21.5H11.6944Z" fill="url(#paint1_linear_4607_10954)"/>
<defs>
<linearGradient id="paint0_linear_4607_10954" x1="16" y1="0" x2="16" y2="32" gradientUnits="userSpaceOnUse">
<stop stop-color="#008000"/>
<stop offset="1" stop-color="#00B800"/>
</linearGradient>
<linearGradient id="paint1_linear_4607_10954" x1="15.5" y1="6.5" x2="15.5" y2="25.5" gradientUnits="userSpaceOnUse">
<stop stop-color="#008000"/>
<stop offset="1" stop-color="#00B800"/>
</linearGradient>
</defs>
</svg>
