<svg width="34" height="34" viewBox="0 0 34 34" fill="none" xmlns="http://www.w3.org/2000/svg">
<path d="M17 22.3125C19.934 22.3125 22.3125 19.934 22.3125 17C22.3125 14.066 19.934 11.6875 17 11.6875C14.066 11.6875 11.6875 14.066 11.6875 17C11.6875 19.934 14.066 22.3125 17 22.3125Z" stroke="white" stroke-width="1.5" stroke-miterlimit="10"/>
<path d="M22.8438 4.78125H11.1562C7.63543 4.78125 4.78125 7.63543 4.78125 11.1562V22.8438C4.78125 26.3646 7.63543 29.2188 11.1562 29.2188H22.8438C26.3646 29.2188 29.2188 26.3646 29.2188 22.8438V11.1562C29.2188 7.63543 26.3646 4.78125 22.8438 4.78125Z" stroke="white" stroke-width="1.5" stroke-linecap="round" stroke-linejoin="round"/>
<path d="M23.9062 11.6875C24.7865 11.6875 25.5 10.974 25.5 10.0937C25.5 9.21355 24.7865 8.5 23.9062 8.5C23.026 8.5 22.3125 9.21355 22.3125 10.0937C22.3125 10.974 23.026 11.6875 23.9062 11.6875Z" fill="white"/>
</svg>
