<svg width="29" height="30" viewBox="0 0 29 30" fill="none" xmlns="http://www.w3.org/2000/svg">
<path d="M4.83337 11.2461H7.25004V3.99609H9.66671L13.7992 11.2461H19.3334V3.99609H21.75V11.2461H24.1667V13.6628H21.75V16.0794H24.1667V18.4961H21.75V25.7461H19.3334L15.1888 18.4961H9.66671V25.7461H7.25004V18.4961H4.83337V16.0794H7.25004V13.6628H4.83337V11.2461ZM9.66671 11.2461H11.0321L9.66671 8.86568V11.2461ZM9.66671 13.6628V16.0794H13.7992L12.4217 13.6628H9.66671ZM19.3334 20.9128V18.4961H17.9438L19.3334 20.9128ZM15.1767 13.6628L16.5663 16.0794H19.3334V13.6628H15.1767Z" fill="#424242"/>
</svg>
