<svg width="25" height="25" viewBox="0 0 25 25" fill="none" xmlns="http://www.w3.org/2000/svg">
<path d="M21.705 17.2546V8.00684C21.705 7.87376 21.6695 7.74308 21.6024 7.6282C21.5352 7.51333 21.4386 7.4184 21.3227 7.35315L13.0727 2.71253C12.9604 2.64938 12.8338 2.61621 12.705 2.61621C12.5762 2.61621 12.4495 2.64938 12.3373 2.71253L4.08726 7.35315C3.97127 7.4184 3.87473 7.51333 3.80755 7.6282C3.74037 7.74308 3.70496 7.87376 3.70496 8.00684V17.2546C3.70496 17.3876 3.74037 17.5183 3.80755 17.6332C3.87473 17.7481 3.97127 17.843 4.08726 17.9082L12.3373 22.5489C12.4495 22.612 12.5762 22.6452 12.705 22.6452C12.8338 22.6452 12.9604 22.612 13.0727 22.5489L21.3227 17.9082C21.4386 17.843 21.5352 17.7481 21.6024 17.6332C21.6695 17.5183 21.705 17.3876 21.705 17.2546Z" stroke="#424242" stroke-width="1.5" stroke-linecap="round" stroke-linejoin="round"/>
<path d="M17.3008 14.9288V10.0538L8.20496 5.03711" stroke="#424242" stroke-width="1.5" stroke-linecap="round" stroke-linejoin="round"/>
<path d="M21.6016 7.62691L12.7939 12.6306L3.80884 7.62598" stroke="#424242" stroke-width="1.5" stroke-linecap="round" stroke-linejoin="round"/>
<path d="M12.7939 12.6309L12.7059 22.6454" stroke="#424242" stroke-width="1.5" stroke-linecap="round" stroke-linejoin="round"/>
</svg>
