<svg width="12" height="12" viewBox="0 0 12 12" fill="none" xmlns="http://www.w3.org/2000/svg">
<path d="M2.33331 4.53613H3.24998V1.78613H4.16665L5.73415 4.53613H7.83331V1.78613H8.74998V4.53613H9.66665V5.4528H8.74998V6.36947H9.66665V7.28613H8.74998V10.0361H7.83331L6.26123 7.28613H4.16665V10.0361H3.24998V7.28613H2.33331V6.36947H3.24998V5.4528H2.33331V4.53613ZM4.16665 4.53613H4.68456L4.16665 3.63322V4.53613ZM4.16665 5.4528V6.36947H5.73415L5.21165 5.4528H4.16665ZM7.83331 8.2028V7.28613H7.30623L7.83331 8.2028ZM6.25665 5.4528L6.78373 6.36947H7.83331V5.4528H6.25665Z" fill="#424242"/>
</svg>
