<svg width="25" height="25" viewBox="0 0 25 25" fill="none" xmlns="http://www.w3.org/2000/svg">
<path d="M5.20508 13.7168V20.1304C5.20508 20.3293 5.2841 20.5201 5.42475 20.6607C5.5654 20.8014 5.75617 20.8804 5.95508 20.8804H19.4551C19.654 20.8804 19.8448 20.8014 19.9854 20.6607C20.1261 20.5201 20.2051 20.3293 20.2051 20.1304V13.7169" stroke="#424242" stroke-width="1.5" stroke-linecap="round" stroke-linejoin="round"/>
<path d="M5.7708 4.38086H19.6394C19.8023 4.38086 19.9609 4.43395 20.091 4.5321C20.2211 4.63025 20.3157 4.76811 20.3605 4.92482L21.7051 9.63086H3.70508L5.04966 4.92482C5.09444 4.76811 5.18904 4.63025 5.31916 4.5321C5.44927 4.43395 5.60782 4.38086 5.7708 4.38086Z" stroke="#424242" stroke-width="1.5" stroke-linecap="round" stroke-linejoin="round"/>
<path d="M9.70508 9.63086V11.1309C9.70508 11.9265 9.38901 12.6896 8.8264 13.2522C8.26379 13.8148 7.50073 14.1309 6.70508 14.1309C5.90943 14.1309 5.14637 13.8148 4.58376 13.2522C4.02115 12.6896 3.70508 11.9265 3.70508 11.1309V9.63086" stroke="#424242" stroke-width="1.5" stroke-linecap="round" stroke-linejoin="round"/>
<path d="M15.7051 9.63086V11.1309C15.7051 11.9265 15.389 12.6896 14.8264 13.2522C14.2638 13.8148 13.5007 14.1309 12.7051 14.1309C11.9094 14.1309 11.1464 13.8148 10.5838 13.2522C10.0211 12.6896 9.70508 11.9265 9.70508 11.1309V9.63086" stroke="#424242" stroke-width="1.5" stroke-linecap="round" stroke-linejoin="round"/>
<path d="M21.7051 9.63086V11.1309C21.7051 11.9265 21.389 12.6896 20.8264 13.2522C20.2638 13.8148 19.5007 14.1309 18.7051 14.1309C17.9094 14.1309 17.1464 13.8148 16.5838 13.2522C16.0211 12.6896 15.7051 11.9265 15.7051 11.1309V9.63086" stroke="#424242" stroke-width="1.5" stroke-linecap="round" stroke-linejoin="round"/>
</svg>
