<svg width="34" height="34" viewBox="0 0 34 34" fill="none" xmlns="http://www.w3.org/2000/svg">
<path d="M6.37502 26.5625C6.37502 26.5625 11.6875 25.5 12.75 22.3125C12.75 22.3125 4.25002 19.125 6.37502 7.43751C6.37502 7.43751 10.625 12.75 17 13.8125V11.6879C17.0001 10.4673 17.4205 9.28394 18.1904 8.33681C18.9604 7.38967 20.0329 6.7365 21.2278 6.4871C22.4226 6.2377 23.6669 6.4073 24.7514 6.96736C25.8359 7.52743 26.6946 8.44381 27.1829 9.56245L31.875 9.56251L27.625 13.8125C27.625 21.25 22.3125 28.6875 12.75 28.6875C8.50002 28.6875 6.37502 26.5625 6.37502 26.5625Z" stroke="white" stroke-width="1.5" stroke-linecap="round" stroke-linejoin="round"/>
</svg>
